<?xml version="1.0" standalone="no"?>
<!DOCTYPE svg PUBLIC "-//W3C//DTD SVG 20010904//EN"
 "http://www.w3.org/TR/2001/REC-SVG-20010904/DTD/svg10.dtd">
<svg version="1.0" xmlns="http://www.w3.org/2000/svg"
 width="192px" height="192px" viewBox="0 0 192.000000 192.000000"
 preserveAspectRatio="xMidYMid meet">

<g transform="translate(0.000000,280.000000) scale(0.100000,-0.100000)"
fill="#000000" stroke="none">
<path d="M1240 2784 c-58 -7 -127 -18 -155 -24 -27 -6 -63 -14 -80 -17 -16 -3
-39 -12 -50 -19 -11 -8 -25 -14 -33 -14 -20 0 -220 -97 -256 -125 -18 -14 -36
-25 -40 -25 -4 0 -14 -6 -22 -12 -31 -27 -40 -34 -79 -63 -52 -38 -172 -158
-210 -210 -29 -39 -36 -48 -62 -79 -7 -8 -13 -18 -13 -21 0 -3 -15 -28 -34
-56 -19 -27 -38 -59 -42 -71 -7 -23 2 -33 76 -88 18 -14 50 -38 71 -55 20 -16
60 -48 89 -70 63 -48 168 -130 192 -150 15 -13 21 -6 58 73 47 97 91 164 159
236 55 57 151 128 213 156 24 10 47 22 51 26 13 14 112 44 190 59 216 41 440
-12 616 -144 30 -23 59 -41 64 -41 19 0 387 378 381 392 -13 31 -199 159 -311
213 -109 53 -105 52 -141 60 -18 3 -32 10 -32 15 0 4 -15 10 -32 13 -18 3 -55
11 -83 17 -70 15 -281 39 -335 38 -25 0 -92 -6 -150 -14z"/>
<path d="M1410 1395 l0 -265 370 0 c420 0 393 6 370 -84 -26 -106 -79 -196
-168 -285 -46 -46 -80 -87 -75 -91 16 -14 159 -126 184 -145 143 -108 188
-142 209 -162 l26 -23 36 38 c21 20 43 44 51 52 20 23 137 188 137 194 0 3 13
27 29 53 16 27 37 71 46 98 10 28 22 55 25 60 4 6 15 42 24 80 10 39 21 84 26
100 5 17 17 77 26 135 18 118 15 375 -6 463 l-12 47 -649 0 -649 0 0 -265z"/>
</g>
</svg>
