<svg id="svg" version="1.1" xmlns="http://www.w3.org/2000/svg" xmlns:xlink="http://www.w3.org/1999/xlink" width="279" height="279.84375" viewBox="0, 0, 400,279.84375"><g id="svgg"><path id="path0" d="M229.083 98.510 C 223.041 99.509,219.574 103.654,217.943 111.833 L 217.561 113.750 214.710 113.833 C 213.143 113.879,211.813 113.963,211.757 114.021 C 211.506 114.272,210.652 119.552,210.832 119.733 C 210.947 119.847,212.048 119.937,213.758 119.970 C 215.951 120.012,216.500 120.068,216.500 120.252 C 216.500 120.378,216.237 121.892,215.916 123.616 C 215.595 125.340,214.960 128.887,214.505 131.500 C 214.050 134.112,213.416 137.637,213.096 139.333 C 212.776 141.029,212.210 144.179,211.838 146.333 C 209.722 158.601,207.501 161.298,200.960 159.546 C 200.008 159.292,199.500 159.400,199.500 159.859 C 199.500 159.942,199.118 161.060,198.651 162.344 C 197.660 165.070,197.657 165.047,199.070 165.484 C 202.569 166.565,207.297 166.278,210.328 164.802 C 214.096 162.967,216.824 158.383,218.144 151.667 C 218.668 149.003,223.065 124.367,223.543 121.417 L 223.759 120.083 227.803 120.000 C 231.154 119.931,231.873 119.874,232.001 119.667 C 232.322 119.149,233.113 114.535,232.953 114.117 C 232.854 113.861,232.463 113.833,228.922 113.833 C 224.334 113.833,224.767 114.162,225.434 111.188 C 226.703 105.530,229.445 103.601,234.589 104.746 C 235.384 104.923,235.928 104.972,236.025 104.875 C 236.266 104.634,237.999 99.964,237.999 99.555 C 238.001 98.640,232.321 97.975,229.083 98.510 M127.200 99.200 C 126.802 99.598,126.923 149.280,127.322 149.494 C 127.511 149.595,128.902 149.667,130.667 149.667 C 132.431 149.667,133.823 149.595,134.011 149.494 C 134.411 149.280,134.531 99.598,134.133 99.200 C 133.991 99.058,132.985 99.000,130.667 99.000 C 128.348 99.000,127.342 99.058,127.200 99.200 M68.557 113.236 C 62.412 114.408,58.833 118.355,58.833 123.961 C 58.833 129.578,61.388 131.940,70.583 134.823 C 77.012 136.838,78.583 138.101,78.028 140.805 C 77.028 145.673,68.874 145.872,61.202 141.216 C 59.625 140.258,59.711 140.190,58.589 143.303 C 57.494 146.342,57.462 146.084,59.045 147.040 C 69.421 153.305,82.611 150.906,84.925 142.333 C 86.744 135.593,83.759 131.841,73.917 128.497 C 67.212 126.219,65.976 125.374,65.976 123.062 C 65.976 118.534,73.086 117.690,80.881 121.292 C 82.504 122.042,82.416 122.117,83.521 119.024 C 84.507 116.260,84.542 116.410,82.695 115.448 C 78.953 113.500,72.482 112.487,68.557 113.236 M103.000 113.109 C 96.709 113.712,91.482 115.468,91.715 116.899 C 91.860 117.790,93.362 121.642,93.600 121.733 C 93.724 121.781,94.372 121.564,95.038 121.250 C 99.787 119.016,106.255 118.617,109.519 120.357 C 111.218 121.262,111.763 122.287,112.044 125.103 C 112.279 127.449,112.374 127.358,110.000 127.074 C 97.387 125.565,89.629 130.063,89.641 138.876 C 89.654 148.329,98.282 152.240,112.893 149.415 C 116.500 148.718,118.885 148.164,119.120 147.970 C 119.312 147.811,119.340 145.772,119.295 135.515 L 119.240 123.250 118.797 121.627 C 117.101 115.418,111.337 112.310,103.000 113.109 M188.224 113.247 C 181.955 114.384,178.246 118.696,178.547 124.497 C 178.825 129.839,181.193 131.917,190.333 134.838 C 196.781 136.898,198.264 138.100,197.699 140.807 C 196.709 145.546,188.570 145.850,181.251 141.422 C 179.303 140.243,179.391 140.188,178.279 143.264 C 177.190 146.278,177.160 146.063,178.798 147.047 C 189.488 153.467,202.870 150.736,204.750 141.750 C 206.108 135.260,203.282 131.792,194.083 128.665 C 186.199 125.984,184.609 124.595,185.977 121.582 C 187.448 118.345,194.509 118.225,200.663 121.332 C 202.159 122.086,202.275 121.961,203.493 118.282 C 204.141 116.323,204.144 116.329,202.137 115.319 C 198.388 113.432,192.244 112.517,188.224 113.247 M310.599 113.177 C 299.283 114.751,293.219 126.141,296.912 138.885 C 299.573 148.066,309.634 152.491,320.833 149.407 C 324.044 148.522,323.990 148.614,322.979 145.719 C 321.841 142.462,321.978 142.577,320.011 143.246 C 317.321 144.161,312.912 144.251,310.417 143.440 C 305.716 141.914,303.605 138.287,303.612 131.750 C 303.623 121.712,309.335 117.449,319.474 119.911 C 321.616 120.431,321.492 120.478,322.088 118.917 C 323.243 115.889,323.512 114.940,323.279 114.707 C 322.244 113.673,314.102 112.691,310.599 113.177 M155.000 113.279 C 146.393 114.672,141.527 120.763,141.060 130.728 C 140.538 141.855,145.997 148.913,156.083 150.149 C 160.946 150.745,166.652 150.039,170.375 148.381 C 171.571 147.848,171.573 147.822,170.532 144.850 C 169.594 142.172,169.559 142.141,168.125 142.715 C 165.106 143.924,160.519 144.464,157.267 143.994 C 152.204 143.262,149.091 139.820,148.951 134.799 L 148.917 133.583 160.745 133.500 L 172.574 133.417 172.714 132.667 C 173.000 131.127,172.734 126.241,172.260 124.333 C 170.286 116.393,163.323 111.933,155.000 113.279 M246.889 113.403 C 236.890 115.303,231.807 125.097,234.347 137.570 C 236.175 146.545,244.185 151.746,253.641 150.099 C 263.997 148.295,269.213 137.589,265.991 124.750 C 263.955 116.636,255.695 111.730,246.889 113.403 M338.846 113.520 C 330.741 115.221,326.128 121.888,326.117 131.917 C 326.102 144.942,333.996 151.504,348.084 150.180 C 351.432 149.865,356.500 148.362,356.500 147.684 C 356.500 147.118,354.763 142.500,354.522 142.424 C 354.369 142.375,353.508 142.599,352.609 142.920 C 349.379 144.074,343.820 144.495,341.167 143.786 C 336.739 142.603,334.215 139.431,333.976 134.750 L 333.917 133.583 345.703 133.541 C 356.716 133.501,357.500 133.479,357.642 133.207 C 358.198 132.152,357.965 126.889,357.235 124.005 C 355.194 115.936,347.698 111.662,338.846 113.520 M287.583 113.526 C 285.295 113.723,282.761 114.846,281.090 116.402 C 280.639 116.822,280.249 117.167,280.224 117.167 C 280.199 117.167,280.157 116.435,280.131 115.542 L 280.083 113.917 276.771 113.871 C 274.469 113.840,273.389 113.884,273.230 114.017 C 272.858 114.325,272.890 148.866,273.262 149.238 C 273.663 149.640,279.853 149.627,280.188 149.225 C 280.374 149.000,280.433 146.964,280.506 138.183 C 280.593 127.759,280.608 127.375,280.961 126.113 C 282.219 121.618,285.700 119.380,290.480 119.995 C 291.778 120.162,292.081 120.157,292.271 119.968 C 292.584 119.654,294.325 114.673,294.218 114.395 C 293.994 113.810,290.139 113.305,287.583 113.526 M160.236 119.495 C 163.162 120.502,165.055 123.205,165.435 126.920 L 165.546 128.000 157.252 128.000 L 148.957 128.000 149.065 127.187 C 149.856 121.221,154.986 117.689,160.236 119.495 M345.140 119.424 C 347.321 120.072,349.184 122.009,349.919 124.394 C 350.337 125.754,350.684 127.760,350.528 127.916 C 350.230 128.215,334.000 127.988,334.000 127.685 C 334.000 127.006,334.886 124.366,335.529 123.131 C 337.268 119.789,341.226 118.262,345.140 119.424 M253.202 119.665 C 257.207 120.910,259.179 124.899,259.179 131.750 C 259.179 140.106,256.207 144.333,250.333 144.333 C 244.805 144.333,241.840 140.476,241.549 132.903 C 241.156 122.707,245.847 117.378,253.202 119.665 M109.390 132.690 C 110.505 132.794,111.585 132.942,111.792 133.019 L 112.167 133.158 112.167 138.333 L 112.167 143.508 111.779 143.656 C 110.309 144.214,104.563 144.640,102.584 144.336 C 98.628 143.729,97.083 142.137,97.083 138.667 C 97.083 133.696,100.809 131.886,109.390 132.690 " stroke="none" fill="#fbfbfb" fill-rule="evenodd"></path><path id="path1" d="M98.000 0.844 C 95.487 1.061,91.557 1.624,89.333 2.084 C 88.279 2.302,87.119 2.524,86.755 2.578 C 82.726 3.176,71.846 7.179,68.014 9.474 C 67.502 9.780,66.971 10.055,66.833 10.084 C 66.541 10.146,65.596 10.689,63.779 11.840 C 63.061 12.295,62.424 12.670,62.362 12.675 C 62.300 12.679,61.837 12.980,61.333 13.344 C 60.829 13.708,59.892 14.363,59.250 14.801 C 54.526 18.020,48.360 23.682,44.510 28.333 C 43.941 29.021,43.350 29.733,43.196 29.917 C 43.042 30.100,42.505 30.813,42.002 31.500 C 41.498 32.188,40.924 32.929,40.726 33.148 C 40.528 33.366,40.267 33.741,40.148 33.981 C 40.028 34.221,39.668 34.786,39.347 35.237 C 38.525 36.391,37.584 37.866,37.461 38.192 C 37.404 38.343,36.989 39.055,36.540 39.775 C 35.606 41.273,33.032 46.456,32.442 48.027 C 32.224 48.608,31.661 50.039,31.190 51.208 C 30.720 52.377,30.181 53.914,29.994 54.625 C 29.806 55.335,29.467 56.530,29.241 57.279 C 28.557 59.548,27.690 63.331,27.509 64.833 C 27.416 65.612,27.191 67.375,27.010 68.750 C 26.011 76.338,26.181 82.388,27.679 92.500 C 28.151 95.685,30.339 103.194,31.815 106.692 C 32.811 109.056,32.832 108.835,31.542 109.584 C 30.042 110.455,27.783 112.007,27.617 112.281 C 27.543 112.401,27.400 112.500,27.299 112.500 C 27.097 112.500,25.525 113.648,25.047 114.145 C 24.883 114.314,24.425 114.684,24.028 114.968 C 22.238 116.246,16.959 121.520,15.072 123.916 C 14.712 124.373,14.023 125.218,13.542 125.793 C 13.060 126.368,12.667 126.906,12.667 126.990 C 12.667 127.074,12.553 127.257,12.413 127.396 C 12.149 127.660,10.237 130.507,9.085 132.352 C 8.305 133.601,5.779 138.416,5.336 139.500 C 3.172 144.788,2.184 147.821,1.060 152.626 C 0.013 157.101,0.007 157.197,0.056 167.833 L 0.101 177.583 0.627 180.000 C 0.917 181.329,1.428 183.392,1.762 184.583 C 2.096 185.775,2.431 187.050,2.506 187.417 C 2.658 188.166,3.904 191.559,4.586 193.083 C 4.833 193.633,5.061 194.221,5.093 194.389 C 5.226 195.069,8.371 201.070,9.337 202.485 C 9.702 203.020,10.000 203.511,10.000 203.577 C 10.000 203.781,13.628 208.897,14.155 209.437 C 14.430 209.718,14.983 210.391,15.384 210.932 C 16.755 212.784,22.943 218.836,24.583 219.931 C 24.950 220.175,25.291 220.440,25.341 220.518 C 25.559 220.858,31.198 224.833,31.463 224.833 C 31.550 224.833,31.897 225.021,32.236 225.251 C 35.740 227.629,44.456 231.364,48.750 232.329 C 49.483 232.493,50.932 232.826,51.969 233.069 C 59.999 234.945,68.751 235.181,77.085 233.747 C 78.440 233.514,79.610 233.285,79.685 233.239 C 79.759 233.193,79.947 233.589,80.101 234.119 C 80.431 235.258,83.148 241.254,83.822 242.333 C 84.080 242.746,84.716 243.851,85.237 244.790 C 85.757 245.728,86.434 246.824,86.740 247.225 C 87.045 247.626,87.417 248.210,87.566 248.523 C 87.715 248.837,88.117 249.437,88.460 249.857 C 88.803 250.277,89.308 250.936,89.583 251.322 C 90.538 252.662,93.376 256.089,94.355 257.083 C 94.896 257.633,95.663 258.421,96.060 258.833 C 96.920 259.729,99.241 261.920,99.928 262.486 C 100.197 262.708,100.867 263.271,101.417 263.738 C 104.594 266.434,112.024 271.340,114.317 272.256 C 114.555 272.351,115.771 272.926,117.018 273.534 C 118.265 274.141,119.540 274.711,119.851 274.799 C 120.162 274.888,121.279 275.298,122.333 275.711 C 125.538 276.965,130.298 278.266,134.360 278.998 C 137.255 279.519,157.218 279.512,159.950 278.989 C 162.922 278.419,168.627 276.905,170.583 276.167 C 171.592 275.786,173.092 275.229,173.917 274.928 C 176.939 273.828,182.404 270.983,185.788 268.750 C 186.760 268.108,187.762 267.471,188.014 267.333 C 191.910 265.209,202.053 255.262,205.025 250.651 C 205.359 250.132,205.708 249.661,205.801 249.604 C 206.017 249.470,209.567 243.907,209.855 243.249 C 209.976 242.975,210.547 241.866,211.125 240.785 C 211.704 239.704,212.325 238.429,212.506 237.951 C 213.042 236.536,213.026 236.547,213.947 236.951 C 216.028 237.862,218.876 238.991,220.083 239.384 C 223.299 240.430,228.102 241.671,229.917 241.926 C 230.375 241.990,230.900 242.076,231.083 242.117 C 233.167 242.584,242.487 242.776,246.583 242.437 C 251.568 242.024,253.115 241.705,260.500 239.565 C 263.145 238.799,270.448 235.412,273.001 233.768 C 273.413 233.503,274.162 233.024,274.667 232.703 C 276.187 231.736,277.044 231.133,277.844 230.467 C 278.262 230.118,278.679 229.833,278.770 229.833 C 278.861 229.833,279.220 229.573,279.568 229.254 C 279.916 228.935,280.829 228.145,281.598 227.497 C 284.008 225.468,290.000 219.222,290.000 218.740 C 290.000 218.656,291.067 217.264,291.334 217.000 C 291.580 216.757,292.319 215.682,292.555 215.224 C 292.704 214.935,292.922 214.597,293.039 214.474 C 293.285 214.215,294.800 211.824,295.186 211.083 C 295.330 210.808,295.515 210.595,295.599 210.609 C 309.124 212.911,318.244 212.860,329.777 210.418 C 331.320 210.091,332.808 209.783,333.083 209.734 C 335.052 209.383,342.901 206.761,345.268 205.664 C 346.011 205.319,346.799 204.984,347.018 204.919 C 349.405 204.208,358.482 198.998,362.559 196.000 C 363.493 195.313,364.418 194.637,364.613 194.500 C 366.932 192.867,374.303 185.997,376.594 183.333 C 378.772 180.800,382.056 176.671,382.390 176.045 C 382.477 175.883,382.905 175.262,383.342 174.667 C 384.358 173.280,386.711 169.508,387.258 168.388 C 387.490 167.914,388.058 166.868,388.521 166.063 C 388.984 165.258,389.497 164.296,389.660 163.925 C 389.823 163.554,390.491 162.085,391.145 160.662 C 391.799 159.239,392.333 158.016,392.333 157.945 C 392.333 157.875,392.829 156.489,393.435 154.867 C 394.041 153.244,394.709 151.242,394.918 150.417 C 395.128 149.592,395.606 147.754,395.980 146.333 C 396.855 143.007,397.309 140.789,397.498 138.917 C 397.581 138.092,397.761 136.544,397.898 135.477 C 398.632 129.750,398.675 121.603,398.002 116.000 C 397.810 114.396,397.580 112.420,397.493 111.610 C 397.120 108.174,393.991 96.219,393.167 95.083 C 393.100 94.992,392.802 94.204,392.504 93.333 C 392.207 92.462,391.552 90.888,391.049 89.833 C 390.547 88.779,389.987 87.542,389.804 87.083 C 389.622 86.625,389.226 85.837,388.924 85.333 C 388.623 84.829,387.989 83.671,387.515 82.760 C 387.041 81.849,386.366 80.683,386.015 80.169 C 385.664 79.655,385.258 79.004,385.112 78.722 C 384.683 77.892,381.498 73.300,380.912 72.667 C 380.615 72.346,380.173 71.762,379.930 71.369 C 379.688 70.977,379.222 70.377,378.895 70.036 C 378.569 69.695,378.105 69.154,377.864 68.833 C 377.301 68.083,372.967 63.487,371.629 62.222 C 371.063 61.687,370.370 61.025,370.088 60.750 C 369.806 60.475,369.314 60.053,368.996 59.812 C 368.677 59.570,368.152 59.114,367.828 58.798 C 367.505 58.481,366.915 57.987,366.518 57.699 C 366.121 57.411,365.421 56.855,364.963 56.463 C 364.505 56.071,363.820 55.544,363.440 55.293 C 363.061 55.042,362.563 54.684,362.333 54.498 C 362.104 54.312,360.904 53.507,359.667 52.709 C 358.429 51.912,357.379 51.216,357.333 51.163 C 357.131 50.929,355.472 50.000,355.257 50.000 C 355.127 50.000,354.975 49.929,354.921 49.841 C 354.404 49.003,343.985 44.242,339.667 42.870 C 335.181 41.445,330.706 40.262,329.111 40.080 C 328.637 40.026,327.200 39.801,325.917 39.580 C 320.043 38.568,309.606 38.188,304.417 38.799 C 301.883 39.097,299.317 39.466,297.833 39.747 C 297.146 39.877,296.208 40.027,295.750 40.082 C 294.208 40.265,289.987 41.365,285.417 42.774 C 284.333 43.108,280.301 44.674,280.078 44.847 C 279.984 44.920,279.711 45.016,279.473 45.059 C 279.235 45.102,278.810 45.256,278.528 45.402 C 277.789 45.784,277.745 45.762,277.153 44.708 C 276.856 44.181,276.271 43.262,275.852 42.667 C 275.432 42.071,274.973 41.358,274.831 41.083 C 274.547 40.534,271.187 36.051,269.772 34.333 C 267.122 31.115,257.765 22.500,256.920 22.500 C 256.810 22.500,255.189 21.366,254.750 20.982 C 254.567 20.822,253.990 20.442,253.468 20.137 C 252.946 19.833,251.896 19.213,251.135 18.761 C 249.328 17.688,244.879 15.465,243.500 14.946 C 242.904 14.722,241.560 14.187,240.512 13.757 C 239.464 13.327,238.077 12.838,237.429 12.671 C 236.780 12.504,235.313 12.094,234.167 11.759 C 231.813 11.071,227.791 10.232,226.167 10.091 C 225.571 10.040,223.996 9.883,222.667 9.743 C 219.868 9.449,212.993 9.405,210.333 9.664 C 209.371 9.757,207.758 9.912,206.750 10.007 C 204.022 10.263,201.602 10.790,195.734 12.404 C 194.028 12.873,191.580 13.745,190.085 14.416 C 189.536 14.663,188.749 14.978,188.335 15.118 C 187.368 15.443,181.746 18.334,180.333 19.232 C 179.737 19.610,178.969 20.068,178.625 20.248 C 178.281 20.428,178.000 20.634,178.000 20.705 C 178.000 20.775,177.927 20.833,177.837 20.833 C 177.589 20.833,173.107 24.062,172.551 24.641 C 172.385 24.813,172.160 24.983,172.051 25.019 C 171.784 25.105,169.005 27.570,167.140 29.375 C 165.355 31.103,165.582 31.056,164.716 29.873 C 164.330 29.347,163.636 28.505,163.174 28.003 C 162.712 27.500,162.333 27.041,162.333 26.983 C 162.333 26.247,152.078 16.945,149.417 15.268 C 149.142 15.095,148.400 14.570,147.769 14.102 C 147.137 13.633,146.222 13.025,145.735 12.750 C 145.247 12.475,144.171 11.824,143.344 11.304 C 142.516 10.783,141.668 10.306,141.461 10.243 C 141.253 10.179,140.670 9.879,140.164 9.576 C 139.211 9.003,136.993 7.933,134.833 7.004 C 134.146 6.708,133.246 6.314,132.833 6.128 C 132.011 5.757,130.425 5.180,129.948 5.079 C 129.781 5.044,128.640 4.674,127.411 4.257 C 125.261 3.528,122.555 2.784,121.333 2.586 C 121.013 2.534,119.813 2.308,118.667 2.083 C 112.499 0.874,103.730 0.348,98.000 0.844 M236.322 98.507 C 238.533 99.035,238.488 98.853,237.267 102.315 C 236.165 105.439,236.357 105.249,234.662 104.906 C 229.204 103.800,226.664 105.760,225.360 112.083 L 225.050 113.583 229.067 113.667 L 233.083 113.750 233.141 114.155 C 233.214 114.674,232.340 119.516,232.123 119.792 C 232.000 119.948,230.967 120.000,227.991 120.000 L 224.024 120.000 223.850 120.875 C 223.339 123.461,222.634 127.342,222.329 129.250 C 222.139 130.442,221.539 133.854,220.996 136.833 C 220.453 139.813,219.711 144.012,219.347 146.167 C 217.080 159.585,214.305 164.283,207.667 165.937 C 204.775 166.658,199.018 166.184,197.972 165.139 C 197.595 164.762,197.622 164.626,198.627 161.833 C 199.623 159.069,199.677 159.015,201.033 159.429 C 205.422 160.769,208.405 159.013,209.970 154.167 C 210.540 152.399,212.007 144.993,213.088 138.417 C 213.329 136.950,213.853 134.025,214.252 131.917 C 214.651 129.808,215.242 126.508,215.565 124.583 C 215.888 122.658,216.202 120.840,216.264 120.542 L 216.375 120.000 213.625 120.000 C 210.125 120.000,210.336 120.236,210.910 116.961 C 211.532 113.414,211.245 113.667,214.655 113.667 L 217.469 113.667 217.747 112.042 C 219.585 101.275,226.578 96.180,236.322 98.507 M134.300 99.033 C 134.591 99.324,134.591 149.176,134.300 149.467 C 134.017 149.750,127.316 149.750,127.033 149.467 C 126.767 149.201,126.740 99.652,127.006 99.156 C 127.217 98.761,133.915 98.648,134.300 99.033 M75.812 113.096 C 78.717 113.527,83.897 115.502,84.410 116.374 C 84.592 116.684,84.364 117.430,83.177 120.417 C 82.463 122.213,82.346 122.262,80.723 121.447 C 73.722 117.931,66.167 118.742,66.167 123.010 C 66.167 125.217,67.526 126.188,73.286 128.097 C 82.731 131.228,85.444 133.747,85.385 139.333 C 85.291 148.167,77.187 152.518,65.665 149.923 C 63.102 149.345,59.181 147.620,57.941 146.524 C 57.433 146.074,58.572 141.772,59.504 140.621 L 59.802 140.252 60.526 140.623 C 60.924 140.827,61.725 141.291,62.306 141.654 C 67.330 144.794,74.516 145.259,76.965 142.602 C 78.853 140.554,78.195 138.201,75.335 136.769 C 73.967 136.084,72.854 135.694,67.908 134.167 C 61.510 132.191,58.554 128.877,58.618 123.750 C 58.714 116.056,65.871 111.621,75.812 113.096 M108.004 113.007 C 114.047 113.748,117.627 116.561,119.028 121.667 L 119.417 123.083 119.417 135.583 L 119.417 148.083 118.583 148.360 C 116.934 148.908,112.976 149.646,108.833 150.179 C 97.088 151.691,89.854 147.679,89.538 139.479 C 89.165 129.782,97.712 124.916,111.292 127.096 L 112.000 127.209 111.999 126.313 C 111.992 121.379,109.902 119.500,104.423 119.500 C 100.804 119.500,98.118 120.036,95.444 121.293 C 93.394 122.257,93.489 122.316,92.379 119.402 C 91.262 116.471,91.272 116.286,92.578 115.565 C 96.212 113.557,103.135 112.409,108.004 113.007 M161.536 113.258 C 169.221 114.874,173.720 122.170,172.924 131.725 C 172.728 134.071,174.118 133.833,160.571 133.833 L 148.976 133.833 149.086 134.792 C 149.772 140.797,152.515 143.411,158.667 143.922 C 161.251 144.136,165.762 143.459,168.583 142.433 C 169.594 142.065,169.751 142.257,170.795 145.127 C 171.837 147.992,171.846 147.900,170.441 148.564 C 166.235 150.552,158.198 151.053,152.749 149.669 C 144.394 147.545,139.757 139.289,140.985 128.724 C 142.280 117.586,150.982 111.037,161.536 113.258 M196.667 113.250 C 200.248 114.039,204.177 115.866,204.160 116.734 C 204.149 117.286,202.399 121.725,202.124 121.898 C 201.949 122.009,201.371 121.831,200.147 121.290 C 192.517 117.918,185.833 118.757,185.833 123.086 C 185.833 125.125,187.673 126.420,192.917 128.075 C 203.265 131.340,206.476 135.178,204.775 142.250 C 202.625 151.187,188.745 153.579,178.125 146.843 C 177.134 146.214,177.133 146.167,178.080 143.345 C 179.243 139.876,179.197 139.906,181.315 141.231 C 188.705 145.855,197.639 145.247,197.663 140.118 C 197.673 137.969,195.789 136.630,190.583 135.085 C 180.953 132.226,178.123 129.504,178.373 123.339 C 178.588 118.014,182.370 114.074,188.305 112.993 C 189.578 112.762,195.239 112.935,196.667 113.250 M317.152 113.004 C 320.047 113.309,323.398 114.251,323.575 114.808 C 323.626 114.968,323.372 115.858,323.011 116.784 C 322.650 117.711,322.274 118.769,322.175 119.136 C 322.076 119.502,321.859 119.970,321.692 120.177 L 321.389 120.551 320.069 120.199 C 310.245 117.577,304.329 121.323,303.733 130.546 C 303.061 140.948,309.616 145.996,319.983 143.060 C 321.983 142.493,321.876 142.406,323.069 145.558 C 324.329 148.889,324.295 148.930,319.579 149.817 C 304.882 152.582,295.757 145.625,295.771 131.667 C 295.783 118.789,303.998 111.619,317.152 113.004 M344.955 113.013 C 351.306 113.721,356.127 118.038,357.418 124.171 C 358.217 127.972,358.246 133.197,357.470 133.688 C 357.349 133.765,352.056 133.829,345.708 133.831 L 334.167 133.833 334.169 134.542 C 334.194 142.563,342.114 146.084,352.629 142.747 C 354.633 142.111,354.712 142.121,355.082 143.046 C 355.766 144.754,356.667 147.315,356.667 147.550 C 356.667 148.243,354.252 149.284,351.417 149.815 C 335.150 152.858,325.139 145.388,325.888 130.766 C 326.454 119.696,332.537 113.222,342.715 112.856 C 343.062 112.844,344.070 112.914,344.955 113.013 M255.410 113.571 C 264.099 116.178,268.521 125.074,266.725 136.333 C 265.299 145.273,259.320 150.406,250.333 150.406 C 240.208 150.406,234.071 144.049,233.556 133.027 C 233.061 122.452,238.270 114.725,246.943 113.165 C 248.743 112.841,253.784 113.083,255.410 113.571 M292.583 113.585 C 294.810 114.046,294.777 113.927,293.567 117.215 C 292.406 120.368,292.339 120.447,291.067 120.192 C 287.141 119.403,283.528 120.940,282.008 124.046 C 280.626 126.868,280.500 128.212,280.500 140.119 C 280.500 149.110,280.492 149.326,280.171 149.498 C 279.963 149.609,278.631 149.657,276.551 149.629 L 273.260 149.583 273.048 149.167 C 272.642 148.369,272.828 114.038,273.240 113.737 C 273.492 113.553,274.243 113.500,276.615 113.500 C 280.391 113.500,280.333 113.468,280.333 115.534 L 280.333 116.901 280.958 116.301 C 283.729 113.639,288.011 112.639,292.583 113.585 M155.083 119.564 C 152.100 120.290,149.187 124.259,149.168 127.625 C 149.167 127.789,150.894 127.833,157.250 127.833 L 165.333 127.833 165.330 127.292 C 165.301 121.835,160.533 118.239,155.083 119.564 M340.004 119.601 C 337.300 120.327,335.170 122.904,334.508 126.250 C 334.399 126.800,334.273 127.382,334.227 127.543 C 334.148 127.821,334.582 127.834,342.279 127.793 L 350.416 127.750 350.363 127.083 C 349.917 121.408,345.406 118.149,340.004 119.601 M247.731 119.735 C 243.425 120.780,241.012 126.707,241.821 134.250 C 242.559 141.121,245.174 144.167,250.333 144.167 C 256.086 144.167,258.999 139.993,258.999 131.750 C 258.999 122.470,254.820 118.015,247.731 119.735 M102.333 132.928 C 98.957 133.659,97.333 135.356,97.198 138.297 C 97.106 140.280,97.339 141.118,98.266 142.149 C 100.304 144.416,103.900 144.810,111.292 143.576 L 112.000 143.457 112.000 138.325 L 112.000 133.193 111.542 133.100 C 109.222 132.628,104.157 132.533,102.333 132.928 " stroke="none" fill="#04a4e4" fill-rule="evenodd"></path><path id="path2" d="M128.958 98.958 C 129.898 98.987,131.435 98.987,132.375 98.958 C 133.315 98.928,132.546 98.904,130.667 98.904 C 128.787 98.904,128.019 98.928,128.958 98.958 M126.915 124.333 C 126.915 138.037,126.934 143.644,126.958 136.792 C 126.982 129.940,126.982 118.727,126.958 111.875 C 126.934 105.023,126.915 110.629,126.915 124.333 M134.415 124.333 C 134.415 138.037,134.434 143.644,134.458 136.792 C 134.482 129.940,134.482 118.727,134.458 111.875 C 134.434 105.023,134.415 110.629,134.415 124.333 M71.213 112.956 C 71.652 112.990,72.327 112.990,72.713 112.955 C 73.100 112.920,72.742 112.892,71.917 112.892 C 71.092 112.893,70.775 112.922,71.213 112.956 M190.797 112.956 C 191.282 112.990,192.032 112.990,192.464 112.956 C 192.896 112.921,192.500 112.894,191.583 112.894 C 190.667 112.895,190.313 112.923,190.797 112.956 M280.226 115.583 C 280.225 116.408,280.254 116.767,280.288 116.380 C 280.323 115.993,280.324 115.318,280.289 114.880 C 280.255 114.442,280.226 114.758,280.226 115.583 M61.573 116.542 L 61.083 117.083 61.625 116.594 C 62.130 116.138,62.243 116.000,62.115 116.000 C 62.086 116.000,61.842 116.244,61.573 116.542 M238.577 117.542 L 237.750 118.417 238.625 117.590 C 239.106 117.135,239.500 116.741,239.500 116.715 C 239.500 116.590,239.346 116.729,238.577 117.542 M261.826 117.375 C 262.517 118.111,262.667 118.243,262.667 118.118 C 262.667 118.091,262.310 117.735,261.875 117.326 L 261.083 116.583 261.826 117.375 M145.991 117.458 L 145.417 118.083 146.042 117.509 C 146.623 116.974,146.743 116.833,146.616 116.833 C 146.588 116.833,146.307 117.115,145.991 117.458 M70.960 119.118 C 71.168 119.158,71.468 119.156,71.627 119.115 C 71.786 119.073,71.617 119.040,71.250 119.042 C 70.883 119.044,70.753 119.078,70.960 119.118 M190.711 119.120 C 190.964 119.158,191.339 119.157,191.544 119.117 C 191.749 119.078,191.542 119.046,191.083 119.048 C 190.625 119.049,190.457 119.081,190.711 119.120 M162.500 120.885 C 162.500 120.914,162.744 121.158,163.042 121.427 L 163.583 121.917 163.094 121.375 C 162.638 120.870,162.500 120.757,162.500 120.885 M306.824 121.958 L 306.250 122.583 306.875 122.009 C 307.457 121.474,307.577 121.333,307.449 121.333 C 307.422 121.333,307.140 121.615,306.824 121.958 M185.709 123.083 C 185.711 123.450,185.745 123.580,185.785 123.373 C 185.824 123.166,185.823 122.866,185.781 122.706 C 185.739 122.547,185.707 122.717,185.709 123.083 M119.412 136.417 C 119.412 142.650,119.433 145.176,119.458 142.029 C 119.484 138.883,119.484 133.783,119.458 130.696 C 119.433 127.609,119.412 130.183,119.412 136.417 M149.053 127.583 C 149.087 127.912,149.211 127.917,157.252 127.919 L 165.417 127.921 157.304 127.876 C 149.760 127.833,149.184 127.810,149.105 127.540 C 149.039 127.317,149.027 127.327,149.053 127.583 M334.143 127.877 C 334.213 127.946,337.940 127.984,342.427 127.960 L 350.583 127.917 342.300 127.833 C 337.744 127.787,334.074 127.807,334.143 127.877 M172.872 128.500 C 172.872 128.821,172.906 128.952,172.948 128.792 C 172.990 128.631,172.990 128.369,172.948 128.208 C 172.906 128.048,172.872 128.179,172.872 128.500 M259.042 130.417 C 259.044 130.783,259.078 130.914,259.118 130.706 C 259.158 130.499,259.156 130.199,259.115 130.040 C 259.073 129.880,259.040 130.050,259.042 130.417 M241.559 131.750 C 241.559 132.575,241.587 132.934,241.622 132.547 C 241.657 132.160,241.657 131.485,241.623 131.047 C 241.588 130.609,241.560 130.925,241.559 131.750 M140.892 131.917 C 140.892 132.742,140.920 133.100,140.955 132.713 C 140.990 132.327,140.990 131.652,140.956 131.213 C 140.922 130.775,140.893 131.092,140.892 131.917 M202.583 133.000 C 202.941 133.367,203.272 133.667,203.318 133.667 C 203.363 133.667,203.108 133.367,202.750 133.000 C 202.392 132.633,202.062 132.333,202.016 132.333 C 201.970 132.333,202.225 132.633,202.583 133.000 M106.708 132.615 C 106.869 132.657,107.131 132.657,107.292 132.615 C 107.452 132.573,107.321 132.539,107.000 132.539 C 106.679 132.539,106.548 132.573,106.708 132.615 M259.039 133.167 C 259.039 133.487,259.073 133.619,259.115 133.458 C 259.157 133.298,259.157 133.035,259.115 132.875 C 259.073 132.715,259.039 132.846,259.039 133.167 M205.045 139.167 C 205.045 139.579,205.078 139.748,205.118 139.542 C 205.157 139.335,205.157 138.998,205.118 138.792 C 205.078 138.585,205.045 138.754,205.045 139.167 M314.042 143.953 C 314.294 143.991,314.706 143.991,314.958 143.953 C 315.210 143.915,315.004 143.883,314.500 143.883 C 313.996 143.883,313.790 143.915,314.042 143.953 M249.875 144.286 C 250.127 144.324,250.540 144.324,250.792 144.286 C 251.044 144.248,250.838 144.217,250.333 144.217 C 249.829 144.217,249.623 144.248,249.875 144.286 M330.826 145.708 C 331.517 146.444,331.667 146.577,331.667 146.451 C 331.667 146.425,331.310 146.068,330.875 145.660 L 330.083 144.917 330.826 145.708 M261.833 146.083 C 261.428 146.496,261.135 146.833,261.181 146.833 C 261.226 146.833,261.595 146.496,262.000 146.083 C 262.405 145.671,262.699 145.333,262.653 145.333 C 262.607 145.333,262.238 145.671,261.833 146.083 M82.333 146.917 C 81.928 147.329,81.635 147.667,81.681 147.667 C 81.726 147.667,82.095 147.329,82.500 146.917 C 82.905 146.504,83.199 146.167,83.153 146.167 C 83.107 146.167,82.738 146.504,82.333 146.917 M158.797 150.456 C 159.282 150.490,160.032 150.490,160.464 150.456 C 160.896 150.421,160.500 150.394,159.583 150.394 C 158.667 150.395,158.313 150.423,158.797 150.456 M343.797 150.456 C 344.282 150.490,345.032 150.490,345.464 150.456 C 345.896 150.421,345.500 150.394,344.583 150.394 C 343.667 150.395,343.313 150.423,343.797 150.456 M71.375 150.621 C 71.719 150.657,72.281 150.657,72.625 150.621 C 72.969 150.585,72.688 150.556,72.000 150.556 C 71.313 150.556,71.031 150.585,71.375 150.621 M191.375 150.619 C 191.627 150.658,192.040 150.658,192.292 150.619 C 192.544 150.581,192.338 150.550,191.833 150.550 C 191.329 150.550,191.123 150.581,191.375 150.619 M202.880 166.289 C 203.318 166.324,203.993 166.323,204.380 166.288 C 204.767 166.254,204.408 166.225,203.583 166.226 C 202.758 166.226,202.442 166.255,202.880 166.289 " stroke="none" fill="#5fc5ec" fill-rule="evenodd"></path><path id="path3" d="M231.464 98.290 C 231.948 98.324,232.698 98.323,233.131 98.289 C 233.563 98.255,233.167 98.227,232.250 98.228 C 231.333 98.228,230.980 98.256,231.464 98.290 M157.213 113.123 C 157.652 113.157,158.327 113.157,158.713 113.122 C 159.100 113.087,158.742 113.059,157.917 113.059 C 157.092 113.060,156.775 113.088,157.213 113.123 M249.708 113.121 C 250.052 113.157,250.615 113.157,250.958 113.121 C 251.302 113.085,251.021 113.056,250.333 113.056 C 249.646 113.056,249.365 113.085,249.708 113.121 M342.208 113.123 C 342.644 113.157,343.356 113.157,343.792 113.123 C 344.227 113.088,343.871 113.060,343.000 113.060 C 342.129 113.060,341.773 113.088,342.208 113.123 M217.500 113.472 C 217.500 113.611,216.723 113.677,214.792 113.704 L 212.083 113.741 214.737 113.791 C 217.200 113.838,217.956 113.733,217.614 113.392 C 217.551 113.329,217.500 113.365,217.500 113.472 M287.792 113.451 C 287.998 113.491,288.335 113.491,288.542 113.451 C 288.748 113.411,288.579 113.379,288.167 113.379 C 287.754 113.379,287.585 113.411,287.792 113.451 M289.458 113.451 C 289.665 113.491,290.002 113.491,290.208 113.451 C 290.415 113.411,290.246 113.379,289.833 113.379 C 289.421 113.379,289.252 113.411,289.458 113.451 M226.884 113.791 C 227.967 113.820,229.692 113.820,230.718 113.791 C 231.744 113.762,230.858 113.738,228.750 113.738 C 226.642 113.738,225.802 113.762,226.884 113.791 M275.042 113.791 C 275.935 113.821,277.398 113.821,278.292 113.791 C 279.185 113.761,278.454 113.736,276.667 113.736 C 274.879 113.736,274.148 113.761,275.042 113.791 M232.980 114.370 C 233.057 114.833,233.080 114.856,233.133 114.522 C 233.167 114.306,233.126 114.060,233.042 113.976 C 232.950 113.883,232.925 114.039,232.980 114.370 M353.333 117.083 C 353.831 117.587,354.276 118.000,354.322 118.000 C 354.368 118.000,353.998 117.587,353.500 117.083 C 353.002 116.579,352.557 116.167,352.511 116.167 C 352.466 116.167,352.835 116.579,353.333 117.083 M167.833 116.552 C 167.833 116.581,168.077 116.825,168.375 117.094 L 168.917 117.583 168.427 117.042 C 167.971 116.537,167.833 116.423,167.833 116.552 M331.077 117.542 L 330.250 118.417 331.125 117.590 C 331.606 117.135,332.000 116.741,332.000 116.715 C 332.000 116.590,331.846 116.729,331.077 117.542 M300.909 117.708 L 300.250 118.417 300.958 117.758 C 301.348 117.395,301.667 117.077,301.667 117.050 C 301.667 116.923,301.522 117.050,300.909 117.708 M72.042 119.115 C 72.202 119.157,72.465 119.157,72.625 119.115 C 72.785 119.073,72.654 119.039,72.333 119.039 C 72.012 119.039,71.881 119.073,72.042 119.115 M157.044 119.120 C 157.297 119.158,157.672 119.157,157.877 119.117 C 158.082 119.078,157.875 119.046,157.417 119.048 C 156.958 119.049,156.791 119.081,157.044 119.120 M342.211 119.120 C 342.464 119.158,342.839 119.157,343.044 119.117 C 343.249 119.078,343.042 119.046,342.583 119.048 C 342.125 119.049,341.957 119.081,342.211 119.120 M103.958 119.287 C 104.256 119.324,104.744 119.324,105.042 119.287 C 105.340 119.250,105.096 119.220,104.500 119.220 C 103.904 119.220,103.660 119.250,103.958 119.287 M249.958 119.284 C 250.165 119.324,250.502 119.324,250.708 119.284 C 250.915 119.245,250.746 119.212,250.333 119.212 C 249.921 119.212,249.752 119.245,249.958 119.284 M288.708 119.953 C 288.960 119.991,289.373 119.991,289.625 119.953 C 289.877 119.915,289.671 119.883,289.167 119.883 C 288.662 119.883,288.456 119.915,288.708 119.953 M244.575 121.375 L 243.917 122.083 244.625 121.425 C 245.284 120.812,245.410 120.667,245.284 120.667 C 245.257 120.667,244.938 120.985,244.575 121.375 M336.742 121.375 L 336.083 122.083 336.792 121.425 C 337.450 120.812,337.577 120.667,337.450 120.667 C 337.423 120.667,337.105 120.985,336.742 121.375 M283.242 122.042 L 282.583 122.750 283.292 122.091 C 283.950 121.478,284.077 121.333,283.950 121.333 C 283.923 121.333,283.605 121.652,283.242 122.042 M58.723 124.000 C 58.723 124.688,58.752 124.969,58.788 124.625 C 58.824 124.281,58.824 123.719,58.788 123.375 C 58.752 123.031,58.723 123.313,58.723 124.000 M178.372 124.000 C 178.372 124.321,178.406 124.452,178.448 124.292 C 178.490 124.131,178.490 123.869,178.448 123.708 C 178.406 123.548,178.372 123.679,178.372 124.000 M186.167 124.885 C 186.167 124.914,186.410 125.158,186.708 125.427 L 187.250 125.917 186.760 125.375 C 186.304 124.870,186.167 124.757,186.167 124.885 M112.052 126.250 C 112.053 126.800,112.084 127.005,112.121 126.705 C 112.158 126.406,112.157 125.956,112.119 125.705 C 112.081 125.455,112.051 125.700,112.052 126.250 M103.883 126.791 C 104.690 126.821,105.965 126.821,106.717 126.791 C 107.468 126.760,106.808 126.735,105.250 126.735 C 103.692 126.735,103.077 126.760,103.883 126.791 M259.042 129.250 C 259.044 129.617,259.078 129.747,259.118 129.540 C 259.158 129.332,259.156 129.032,259.115 128.873 C 259.073 128.714,259.040 128.883,259.042 129.250 M141.039 129.500 C 141.039 129.821,141.073 129.952,141.115 129.792 C 141.157 129.631,141.157 129.369,141.115 129.208 C 141.073 129.048,141.039 129.179,141.039 129.500 M172.883 129.833 C 172.883 130.337,172.915 130.544,172.953 130.292 C 172.991 130.040,172.991 129.627,172.953 129.375 C 172.915 129.123,172.883 129.329,172.883 129.833 M233.712 130.000 C 233.712 130.412,233.745 130.581,233.784 130.375 C 233.824 130.169,233.824 129.831,233.784 129.625 C 233.745 129.419,233.712 129.587,233.712 130.000 M241.539 129.833 C 241.539 130.154,241.573 130.285,241.615 130.125 C 241.657 129.965,241.657 129.702,241.615 129.542 C 241.573 129.381,241.539 129.512,241.539 129.833 M295.881 130.417 C 295.882 130.875,295.915 131.043,295.953 130.789 C 295.991 130.536,295.990 130.161,295.951 129.956 C 295.911 129.751,295.880 129.958,295.881 130.417 M326.045 130.333 C 326.045 130.746,326.078 130.915,326.118 130.708 C 326.157 130.502,326.157 130.165,326.118 129.958 C 326.078 129.752,326.045 129.921,326.045 130.333 M61.167 130.417 C 61.478 130.737,61.770 131.000,61.815 131.000 C 61.861 131.000,61.644 130.737,61.333 130.417 C 61.022 130.096,60.730 129.833,60.685 129.833 C 60.639 129.833,60.856 130.096,61.167 130.417 M266.897 131.750 C 266.897 132.850,266.924 133.278,266.957 132.702 C 266.990 132.125,266.989 131.225,266.956 130.702 C 266.923 130.178,266.897 130.650,266.897 131.750 M303.564 131.833 C 303.564 132.979,303.591 133.448,303.623 132.875 C 303.656 132.302,303.656 131.365,303.623 130.792 C 303.591 130.219,303.564 130.688,303.564 131.833 M295.883 133.000 C 295.883 133.504,295.915 133.710,295.953 133.458 C 295.991 133.206,295.991 132.794,295.953 132.542 C 295.915 132.290,295.883 132.496,295.883 133.000 M233.714 133.583 C 233.716 134.042,233.748 134.209,233.786 133.956 C 233.825 133.703,233.824 133.328,233.784 133.123 C 233.744 132.918,233.713 133.125,233.714 133.583 M326.042 133.583 C 326.044 133.950,326.078 134.080,326.118 133.873 C 326.158 133.666,326.156 133.366,326.115 133.206 C 326.073 133.047,326.040 133.217,326.042 133.583 M112.074 138.333 C 112.074 141.221,112.097 142.402,112.125 140.958 C 112.152 139.515,112.152 137.152,112.125 135.708 C 112.097 134.265,112.074 135.446,112.074 138.333 M241.539 133.667 C 241.539 133.987,241.573 134.119,241.615 133.958 C 241.657 133.798,241.657 133.535,241.615 133.375 C 241.573 133.215,241.539 133.346,241.539 133.667 M345.750 133.498 L 333.917 133.583 333.893 134.083 C 333.870 134.558,333.872 134.560,333.945 134.125 L 334.022 133.667 345.751 133.667 C 353.391 133.667,357.516 133.609,357.583 133.500 C 357.640 133.408,357.663 133.351,357.635 133.373 C 357.607 133.395,352.258 133.452,345.750 133.498 M148.942 133.625 C 148.872 133.738,157.433 133.737,168.250 133.622 C 170.542 133.597,167.152 133.560,160.718 133.539 C 154.284 133.517,148.985 133.556,148.942 133.625 M259.042 134.250 C 259.044 134.617,259.078 134.747,259.118 134.540 C 259.158 134.332,259.156 134.032,259.115 133.873 C 259.073 133.714,259.040 133.883,259.042 134.250 M98.491 134.625 L 97.917 135.250 98.542 134.676 C 99.123 134.141,99.243 134.000,99.116 134.000 C 99.088 134.000,98.807 134.281,98.491 134.625 M89.539 138.000 C 89.539 138.321,89.573 138.452,89.615 138.292 C 89.657 138.131,89.657 137.869,89.615 137.708 C 89.573 137.548,89.539 137.679,89.539 138.000 M89.542 139.583 C 89.544 139.950,89.578 140.080,89.618 139.873 C 89.658 139.666,89.656 139.366,89.615 139.206 C 89.573 139.047,89.540 139.217,89.542 139.583 M197.712 140.000 C 197.712 140.412,197.745 140.581,197.784 140.375 C 197.824 140.169,197.824 139.831,197.784 139.625 C 197.745 139.419,197.712 139.587,197.712 140.000 M78.042 140.083 C 78.044 140.450,78.078 140.580,78.118 140.373 C 78.158 140.166,78.156 139.866,78.115 139.706 C 78.073 139.547,78.040 139.717,78.042 140.083 M312.794 143.951 C 313.001 143.991,313.301 143.990,313.460 143.948 C 313.620 143.906,313.450 143.874,313.083 143.875 C 312.717 143.877,312.586 143.911,312.794 143.951 M315.711 143.953 C 315.964 143.991,316.339 143.990,316.544 143.951 C 316.749 143.911,316.542 143.880,316.083 143.881 C 315.625 143.882,315.457 143.915,315.711 143.953 M158.875 144.123 C 159.402 144.156,160.265 144.156,160.792 144.123 C 161.319 144.090,160.887 144.063,159.833 144.063 C 158.779 144.063,158.348 144.090,158.875 144.123 M344.042 144.123 C 344.569 144.156,345.431 144.156,345.958 144.123 C 346.485 144.090,346.054 144.063,345.000 144.063 C 343.946 144.063,343.515 144.090,344.042 144.123 M107.542 144.282 C 107.702 144.323,107.965 144.323,108.125 144.282 C 108.285 144.240,108.154 144.205,107.833 144.205 C 107.513 144.205,107.381 144.240,107.542 144.282 M103.964 144.456 C 104.448 144.490,105.198 144.490,105.631 144.456 C 106.063 144.421,105.667 144.394,104.750 144.394 C 103.833 144.395,103.480 144.423,103.964 144.456 M300.750 145.667 C 301.294 146.217,301.777 146.667,301.823 146.667 C 301.869 146.667,301.461 146.217,300.917 145.667 C 300.372 145.117,299.890 144.667,299.844 144.667 C 299.798 144.667,300.206 145.117,300.750 145.667 M145.660 145.542 C 146.350 146.278,146.500 146.410,146.500 146.285 C 146.500 146.258,146.144 145.902,145.708 145.493 L 144.917 144.750 145.660 145.542 M238.167 145.552 C 238.167 145.581,238.410 145.825,238.708 146.094 L 239.250 146.583 238.760 146.042 C 238.304 145.537,238.167 145.423,238.167 145.552 M92.333 146.583 C 92.644 146.904,92.936 147.167,92.982 147.167 C 93.028 147.167,92.811 146.904,92.500 146.583 C 92.189 146.262,91.897 146.000,91.851 146.000 C 91.805 146.000,92.022 146.262,92.333 146.583 M249.875 150.453 C 250.127 150.491,250.540 150.491,250.792 150.453 C 251.044 150.415,250.838 150.383,250.333 150.383 C 249.829 150.383,249.623 150.415,249.875 150.453 M203.294 159.951 C 203.501 159.991,203.801 159.990,203.960 159.948 C 204.120 159.906,203.950 159.874,203.583 159.875 C 203.217 159.877,203.086 159.911,203.294 159.951 M213.073 162.875 L 212.583 163.417 213.125 162.927 C 213.630 162.471,213.743 162.333,213.615 162.333 C 213.586 162.333,213.342 162.577,213.073 162.875 M201.375 166.115 C 201.535 166.157,201.798 166.157,201.958 166.115 C 202.119 166.073,201.987 166.039,201.667 166.039 C 201.346 166.039,201.215 166.073,201.375 166.115 M205.375 166.115 C 205.535 166.157,205.798 166.157,205.958 166.115 C 206.119 166.073,205.987 166.039,205.667 166.039 C 205.346 166.039,205.215 166.073,205.375 166.115 " stroke="none" fill="#9cdbf2" fill-rule="evenodd"></path><path id="path4" d="M231.629 98.122 C 232.021 98.157,232.621 98.157,232.963 98.121 C 233.304 98.085,232.983 98.057,232.250 98.057 C 231.517 98.058,231.237 98.087,231.629 98.122 M231.795 104.621 C 232.094 104.658,232.544 104.657,232.795 104.619 C 233.045 104.581,232.800 104.551,232.250 104.552 C 231.700 104.553,231.495 104.584,231.795 104.621 M69.627 112.951 C 69.834 112.991,70.134 112.990,70.294 112.948 C 70.453 112.906,70.283 112.874,69.917 112.875 C 69.550 112.877,69.420 112.911,69.627 112.951 M73.627 112.951 C 73.834 112.991,74.134 112.990,74.294 112.948 C 74.453 112.906,74.283 112.874,73.917 112.875 C 73.550 112.877,73.420 112.911,73.627 112.951 M104.125 112.957 C 104.698 112.989,105.635 112.989,106.208 112.957 C 106.781 112.924,106.313 112.898,105.167 112.898 C 104.021 112.898,103.552 112.924,104.125 112.957 M157.458 112.954 C 157.756 112.991,158.244 112.991,158.542 112.954 C 158.840 112.917,158.596 112.887,158.000 112.887 C 157.404 112.887,157.160 112.917,157.458 112.954 M189.208 112.948 C 189.369 112.990,189.631 112.990,189.792 112.948 C 189.952 112.906,189.821 112.872,189.500 112.872 C 189.179 112.872,189.048 112.906,189.208 112.948 M193.460 112.951 C 193.668 112.991,193.968 112.990,194.127 112.948 C 194.286 112.906,194.117 112.874,193.750 112.875 C 193.383 112.877,193.253 112.911,193.460 112.951 M311.795 112.954 C 312.094 112.991,312.544 112.990,312.795 112.952 C 313.045 112.914,312.800 112.884,312.250 112.885 C 311.700 112.886,311.495 112.917,311.795 112.954 M314.296 112.956 C 314.688 112.991,315.288 112.990,315.629 112.954 C 315.971 112.919,315.650 112.890,314.917 112.890 C 314.183 112.891,313.904 112.920,314.296 112.956 M342.458 112.954 C 342.756 112.991,343.244 112.991,343.542 112.954 C 343.840 112.917,343.596 112.887,343.000 112.887 C 342.404 112.887,342.160 112.917,342.458 112.954 M288.292 113.289 C 288.681 113.324,289.319 113.324,289.708 113.289 C 290.098 113.254,289.779 113.225,289.000 113.225 C 288.221 113.225,287.902 113.254,288.292 113.289 M275.050 113.624 C 275.949 113.654,277.374 113.654,278.217 113.624 C 279.060 113.594,278.325 113.569,276.583 113.569 C 274.842 113.570,274.152 113.594,275.050 113.624 M272.914 131.583 C 272.914 141.117,272.934 144.992,272.958 140.196 C 272.983 135.399,272.983 127.599,272.958 122.862 C 272.934 118.126,272.914 122.050,272.914 131.583 M353.583 117.167 C 354.035 117.625,354.442 118.000,354.487 118.000 C 354.533 118.000,354.201 117.625,353.750 117.167 C 353.299 116.708,352.892 116.333,352.846 116.333 C 352.800 116.333,353.132 116.708,353.583 117.167 M330.909 117.542 L 330.250 118.250 330.958 117.591 C 331.348 117.229,331.667 116.910,331.667 116.883 C 331.667 116.757,331.522 116.883,330.909 117.542 M300.740 117.708 L 300.250 118.250 300.792 117.760 C 301.297 117.304,301.410 117.167,301.281 117.167 C 301.252 117.167,301.009 117.410,300.740 117.708 M72.375 119.282 C 72.535 119.323,72.798 119.323,72.958 119.282 C 73.119 119.240,72.987 119.205,72.667 119.205 C 72.346 119.205,72.215 119.240,72.375 119.282 M156.875 119.288 C 157.219 119.324,157.781 119.324,158.125 119.288 C 158.469 119.252,158.188 119.223,157.500 119.223 C 156.813 119.223,156.531 119.252,156.875 119.288 M341.875 119.288 C 342.219 119.324,342.781 119.324,343.125 119.288 C 343.469 119.252,343.188 119.223,342.500 119.223 C 341.813 119.223,341.531 119.252,341.875 119.288 M103.458 119.456 C 103.940 119.490,104.727 119.490,105.208 119.456 C 105.690 119.423,105.296 119.395,104.333 119.395 C 103.371 119.395,102.977 119.423,103.458 119.456 M249.708 119.455 C 250.052 119.491,250.615 119.491,250.958 119.455 C 251.302 119.419,251.021 119.389,250.333 119.389 C 249.646 119.389,249.365 119.419,249.708 119.455 M313.463 119.456 C 313.855 119.491,314.455 119.490,314.796 119.454 C 315.137 119.419,314.817 119.390,314.083 119.390 C 313.350 119.391,313.071 119.420,313.463 119.456 M202.242 121.650 C 202.155 121.733,201.933 121.837,201.750 121.881 C 201.434 121.957,201.435 121.962,201.771 121.981 C 201.966 121.991,202.219 121.888,202.333 121.750 C 202.560 121.477,202.496 121.409,202.242 121.650 M58.545 124.000 C 58.545 124.412,58.578 124.581,58.618 124.375 C 58.657 124.169,58.657 123.831,58.618 123.625 C 58.578 123.419,58.545 123.587,58.545 124.000 M119.379 124.500 C 119.379 124.912,119.411 125.081,119.451 124.875 C 119.491 124.669,119.491 124.331,119.451 124.125 C 119.411 123.919,119.379 124.087,119.379 124.500 M104.547 126.623 C 104.985 126.657,105.660 126.657,106.047 126.622 C 106.434 126.587,106.075 126.559,105.250 126.559 C 104.425 126.560,104.109 126.588,104.547 126.623 M266.872 128.833 C 266.872 129.154,266.906 129.285,266.948 129.125 C 266.990 128.965,266.990 128.702,266.948 128.542 C 266.906 128.381,266.872 128.512,266.872 128.833 M241.705 129.500 C 241.705 129.821,241.740 129.952,241.782 129.792 C 241.823 129.631,241.823 129.369,241.782 129.208 C 241.740 129.048,241.705 129.179,241.705 129.500 M140.875 129.917 C 140.877 130.283,140.911 130.414,140.951 130.206 C 140.991 129.999,140.990 129.699,140.948 129.540 C 140.906 129.380,140.874 129.550,140.875 129.917 M233.564 131.833 C 233.564 132.979,233.591 133.448,233.623 132.875 C 233.656 132.302,233.656 131.365,233.623 130.792 C 233.591 130.219,233.564 130.688,233.564 131.833 M61.167 130.583 C 61.478 130.904,61.770 131.167,61.815 131.167 C 61.861 131.167,61.644 130.904,61.333 130.583 C 61.022 130.262,60.730 130.000,60.685 130.000 C 60.639 130.000,60.856 130.262,61.167 130.583 M295.728 131.667 C 295.728 132.629,295.756 133.023,295.790 132.542 C 295.823 132.060,295.823 131.273,295.790 130.792 C 295.756 130.310,295.728 130.704,295.728 131.667 M325.898 132.000 C 325.898 133.146,325.924 133.615,325.957 133.042 C 325.989 132.469,325.989 131.531,325.957 130.958 C 325.924 130.385,325.898 130.854,325.898 132.000 M267.057 131.750 C 267.058 132.483,267.087 132.763,267.122 132.371 C 267.157 131.979,267.157 131.379,267.121 131.037 C 267.085 130.696,267.057 131.017,267.057 131.750 M259.050 131.833 C 259.050 132.337,259.081 132.544,259.119 132.292 C 259.158 132.040,259.158 131.627,259.119 131.375 C 259.081 131.123,259.050 131.329,259.050 131.833 M105.128 132.621 C 105.428 132.658,105.878 132.657,106.128 132.619 C 106.378 132.581,106.133 132.551,105.583 132.552 C 105.033 132.553,104.828 132.584,105.128 132.621 M140.875 133.917 C 140.877 134.283,140.911 134.414,140.951 134.206 C 140.991 133.999,140.990 133.699,140.948 133.540 C 140.906 133.380,140.874 133.550,140.875 133.917 M241.709 134.083 C 241.711 134.450,241.745 134.580,241.785 134.373 C 241.824 134.166,241.823 133.866,241.781 133.706 C 241.739 133.547,241.707 133.717,241.709 134.083 M154.804 133.792 C 158.042 133.817,163.292 133.817,166.471 133.792 C 169.649 133.766,167.000 133.746,160.583 133.746 C 154.167 133.746,151.566 133.766,154.804 133.792 M334.025 134.208 C 334.048 134.711,334.055 134.717,334.119 134.293 L 334.189 133.836 345.803 133.792 L 357.417 133.748 345.708 133.707 L 334.000 133.667 334.025 134.208 M266.872 134.667 C 266.872 134.987,266.906 135.119,266.948 134.958 C 266.990 134.798,266.990 134.535,266.948 134.375 C 266.906 134.215,266.872 134.346,266.872 134.667 M97.050 138.667 C 97.050 139.171,97.081 139.377,97.119 139.125 C 97.158 138.873,97.158 138.460,97.119 138.208 C 97.081 137.956,97.050 138.162,97.050 138.667 M85.383 139.167 C 85.383 139.671,85.415 139.877,85.453 139.625 C 85.491 139.373,85.491 138.960,85.453 138.708 C 85.415 138.456,85.383 138.662,85.383 139.167 M346.208 143.948 C 346.369 143.990,346.631 143.990,346.792 143.948 C 346.952 143.906,346.821 143.872,346.500 143.872 C 346.179 143.872,346.048 143.906,346.208 143.948 M71.628 144.454 C 71.928 144.491,72.378 144.490,72.628 144.452 C 72.878 144.414,72.633 144.384,72.083 144.385 C 71.533 144.386,71.328 144.417,71.628 144.454 M191.377 144.453 C 191.631 144.491,192.006 144.490,192.211 144.451 C 192.416 144.411,192.208 144.380,191.750 144.381 C 191.292 144.382,191.124 144.415,191.377 144.453 M145.500 145.552 C 145.500 145.581,145.744 145.825,146.042 146.094 L 146.583 146.583 146.094 146.042 C 145.638 145.537,145.500 145.423,145.500 145.552 M238.167 145.719 C 238.167 145.748,238.410 145.991,238.708 146.260 L 239.250 146.750 238.760 146.208 C 238.304 145.703,238.167 145.590,238.167 145.719 M91.833 146.219 C 91.833 146.248,92.077 146.491,92.375 146.760 L 92.917 147.250 92.427 146.708 C 91.971 146.203,91.833 146.090,91.833 146.219 M274.958 149.624 C 275.898 149.654,277.435 149.654,278.375 149.624 C 279.315 149.595,278.546 149.570,276.667 149.570 C 274.787 149.570,274.019 149.595,274.958 149.624 M313.295 150.454 C 313.594 150.491,314.044 150.490,314.295 150.452 C 314.545 150.414,314.300 150.384,313.750 150.385 C 313.200 150.386,312.995 150.417,313.295 150.454 M190.208 150.615 C 190.369 150.657,190.631 150.657,190.792 150.615 C 190.952 150.573,190.821 150.539,190.500 150.539 C 190.179 150.539,190.048 150.573,190.208 150.615 " stroke="none" fill="#26b4e4" fill-rule="evenodd"></path></g></svg>